# xmcd
#
# Track frame offsets: 
#        150
#        15343
#        27823
#        39213
#        54873
#        69600
#        85733
#        100850
#        112863
#        127945
#        141310
#        157135
#        171338
#        182183
#
# Disc length: 2687 seconds
#
# Revision: 0
# Processed by: cddbd v1.5.1PL2 Copyright (c) Steve Scherf et al.
# Submitted via: ExactAudioCopy v0.95b3
#
DISCID=ab0a7d0e
DTITLE=GRACIELA SUSANA - ADORO, LAREINE DE SABA
DYEAR=1992
DGENRE=
TTITLE0=ADORO
TTITLE1=TOUKU E IKITAI
TTITLE2=TOMBE LA NEIGE
TTITLE3=DAREMO INAI UMI
TTITLE4=SANS TOI MAMIE
TTITLE5=EL RELOJ
TTITLE6=LA REINE DE SABA
TTITLE7=TAKEDA NO KOMORIUTA
TTITLE8=ANATANO SUBETEO
TTITLE9=L'AMOUR, C'EST POUR RIEN
TTITLE10=WASURENAGUSAO ANATANI
TTITLE11=LA PLYA (Aruba)
TTITLE12=TSUME
TTITLE13=SONG FOREVER
EXTD=ADORO - LAREINE\n
EXTT0=
EXTT1=
EXTT2=
EXTT3=
EXTT4=
EXTT5=
EXTT6=
EXTT7=
EXTT8=
EXTT9=
EXTT10=
EXTT11=
EXTT12=
EXTT13=
PLAYORDER=
